<svg width="1823" height="1823" xmlns="http://www.w3.org/2000/svg" xmlns:xlink="http://www.w3.org/1999/xlink" xml:space="preserve" overflow="hidden"><g transform="translate(-2271 -87)"><path d="M2294 998.5C2294 507.795 2691.79 110 3182.5 110 3673.2 110 4071 507.795 4071 998.5 4071 1489.2 3673.2 1887 3182.5 1887 2691.79 1887 2294 1489.2 2294 998.5Z" stroke="#4EA72E" stroke-width="45.8333" stroke-miterlimit="8" fill="none" fill-rule="evenodd"/><g><g><g><path d="M2759.44 1073.75 2840.02 1073.75 2840.02 1557.25 2759.44 1557.25Z"/><path d="M3041.48 1073.75 3122.06 1073.75 3122.06 1557.25 3041.48 1557.25Z"/><path d="M2880.31 1073.75 2920.6 1073.75 2920.6 1557.25 2880.31 1557.25Z"/><path d="M2960.9 1073.75 3001.19 1073.75 3001.19 1557.25 2960.9 1557.25Z"/><path d="M3162.35 1073.75 3242.94 1073.75 3242.94 1557.25 3162.35 1557.25Z"/><path d="M3444.4 1073.75 3524.98 1073.75 3524.98 1557.25 3444.4 1557.25Z"/><path d="M3283.23 1073.75 3323.52 1073.75 3323.52 1557.25 3283.23 1557.25Z"/><path d="M3363.81 1073.75 3404.1 1073.75 3404.1 1557.25 3363.81 1557.25Z"/><path d="M3565.27 1073.75 3605.56 1073.75 3605.56 1557.25 3565.27 1557.25Z"/></g></g></g><path d="M2768 925.5 2768 990.25 3605.5 990.25 3605.5 1119.75 2768 1119.75 2768 1184.5 2638.5 1055Z" stroke="#1C440D" stroke-width="6.875" stroke-miterlimit="8" fill="#4EA72E" fill-rule="evenodd"/><path d="M2367 999C2367 548.888 2732.11 184 3182.5 184 3632.89 184 3998 548.888 3998 999 3998 1449.11 3632.89 1814 3182.5 1814 2732.11 1814 2367 1449.11 2367 999Z" stroke="#4EA72E" stroke-width="27.5" stroke-miterlimit="8" stroke-dasharray="220 82.5" fill="none" fill-rule="evenodd"/><text font-family="Verdana Pro Black,Verdana Pro Black_MSFontService,sans-serif" font-weight="900" font-size="183" transform="matrix(1 0 0 1 2610.76 701)">Gene fetch</text><text font-family="Aharoni,Aharoni_MSFontService,sans-serif" font-weight="700" font-size="73" transform="matrix(1 0 0 1 2675.37 796)">NCBI Sequence Retrieval Tool</text></g></svg>